<svg xmlns="http://www.w3.org/2000/svg" xmlns:xlink="http://www.w3.org/1999/xlink" style="display: none;">
    <!-- icon-clock: Simple outline of a clock -->
    <symbol id="icon-clock" viewBox="0 0 24 24" fill="none" stroke="currentColor" stroke-width="1.5" stroke-linecap="round" stroke-linejoin="round">
        <circle cx="12" cy="12" r="10"></circle>
        <polyline points="12 6 12 12 16 14"></polyline>
    </symbol>

    <!-- icon-smartphone: Outline of a smartphone -->
    <symbol id="icon-smartphone" viewBox="0 0 24 24" fill="none" stroke="currentColor" stroke-width="1.5" stroke-linecap="round" stroke-linejoin="round">
        <rect x="5" y="2" width="14" height="20" rx="2" ry="2"></rect>
        <line x1="12" y1="18" x2="12" y2="18"></line>
    </symbol>

    <!-- icon-shield: Outline of a shield -->
    <symbol id="icon-shield" viewBox="0 0 24 24" fill="none" stroke="currentColor" stroke-width="1.5" stroke-linecap="round" stroke-linejoin="round">
        <path d="M12 22s8-4 8-10V5l-8-3-8 3v7c0 6 8 10 8 10z"></path>
    </symbol>

    <!-- icon-envelope: Simple outline of an envelope -->
    <symbol id="icon-envelope" viewBox="0 0 24 24" fill="none" stroke="currentColor" stroke-width="1.5" stroke-linecap="round" stroke-linejoin="round">
        <rect x="2" y="4" width="20" height="16" rx="2" ry="2"></rect>
        <path d="M22 7l-10 5L2 7"></path>
    </symbol>

    <!-- icon-lock: Outline of a padlock (body and shackle) -->
    <symbol id="icon-lock" viewBox="0 0 24 24" fill="none" stroke="currentColor" stroke-width="1.5" stroke-linecap="round" stroke-linejoin="round">
        <rect x="3" y="11" width="18" height="11" rx="2" ry="2"></rect>
        <path d="M7 11V7a5 5 0 0 1 10 0v4"></path>
    </symbol>

    <!-- icon-user: Outline of a person/head and shoulders -->
    <symbol id="icon-user" viewBox="0 0 24 24" fill="none" stroke="currentColor" stroke-width="1.5" stroke-linecap="round" stroke-linejoin="round">
        <path d="M20 21v-2a4 4 0 0 0-4-4H8a4 4 0 0 0-4 4v2"></path>
        <circle cx="12" cy="7" r="4"></circle>
    </symbol>

    <!-- icon-eye: Outline of an eye -->
    <symbol id="icon-eye" viewBox="0 0 24 24" fill="none" stroke="currentColor" stroke-width="1.5" stroke-linecap="round" stroke-linejoin="round">
        <path d="M1 12s4-8 11-8 11 8 11 8-4 8-11 8-11-8-11-8z"></path>
        <circle cx="12" cy="12" r="3"></circle>
    </symbol>

    <!-- icon-eye-slash: Outline of an eye with a diagonal line through it -->
    <symbol id="icon-eye-slash" viewBox="0 0 24 24" fill="none" stroke="currentColor" stroke-width="1.5" stroke-linecap="round" stroke-linejoin="round">
        <path d="M17.94 17.94A10.07 10.07 0 0 1 12 20c-7 0-11-8-11-8a18.45 18.45 0 0 1 5.06-5.94M9.9 4.24A9.12 9.12 0 0 1 12 4c7 0 11 8 11 8a18.5 18.5 0 0 1-2.16 3.19m-6.72-1.07a3 3 0 1 1-4.24-4.24"></path>
        <line x1="1" y1="1" x2="23" y2="23"></line>
    </symbol>

    <!-- icon-upload: Outline of an upward arrow coming out of a base -->
    <symbol id="icon-upload" viewBox="0 0 24 24" fill="none" stroke="currentColor" stroke-width="1.5" stroke-linecap="round" stroke-linejoin="round">
        <path d="M21 15v4a2 2 0 0 1-2 2H5a2 2 0 0 1-2-2v-4"></path>
        <polyline points="17 8 12 3 7 8"></polyline>
        <line x1="12" y1="3" x2="12" y2="15"></line>
    </symbol>

    <!-- icon-download: Outline of a downward arrow going into a base -->
    <symbol id="icon-download" viewBox="0 0 24 24" fill="none" stroke="currentColor" stroke-width="1.5" stroke-linecap="round" stroke-linejoin="round">
        <path d="M21 15v4a2 2 0 0 1-2 2H5a2 2 0 0 1-2-2v-4"></path>
        <polyline points="7 10 12 15 17 10"></polyline>
        <line x1="12" y1="15" x2="12" y2="3"></line>
    </symbol>

    <!-- icon-receipt: Outline of a simple receipt with jagged bottom edge -->
    <symbol id="icon-receipt" viewBox="0 0 24 24" fill="none" stroke="currentColor" stroke-width="1.5" stroke-linecap="round" stroke-linejoin="round">
        <path d="M4 2v20l4-2 4 2 4-2 4 2V2l-4 2-4-2-4 2-4-2z"></path>
        <line x1="8" y1="10" x2="16" y2="10"></line>
        <line x1="8" y1="14" x2="16" y2="14"></line>
    </symbol>

    <!-- icon-certificate: Outline of a document with a seal -->
    <symbol id="icon-certificate" viewBox="0 0 24 24" fill="none" stroke="currentColor" stroke-width="1.5" stroke-linecap="round" stroke-linejoin="round">
        <rect x="3" y="2" width="18" height="20" rx="2" ry="2"></rect>
        <circle cx="12" cy="14" r="4"></circle>
        <line x1="8" y1="6" x2="16" y2="6"></line>
        <line x1="8" y1="10" x2="10" y2="10"></line>
    </symbol>

    <!-- icon-renew: Outline of a circular arrow -->
    <symbol id="icon-renew" viewBox="0 0 24 24" fill="none" stroke="currentColor" stroke-width="1.5" stroke-linecap="round" stroke-linejoin="round">
        <path d="M23 4v6h-6"></path>
        <path d="M1 20v-6h6"></path>
        <path d="M3.51 9a9 9 0 0 1 14.85-3.36L23 10"></path>
        <path d="M20.49 15a9 9 0 0 1-14.85 3.36L1 14"></path>
    </symbol>

    <!-- icon-search: Outline of a magnifying glass -->
    <symbol id="icon-search" viewBox="0 0 24 24" fill="none" stroke="currentColor" stroke-width="1.5" stroke-linecap="round" stroke-linejoin="round">
        <circle cx="11" cy="11" r="8"></circle>
        <line x1="21" y1="21" x2="16.65" y2="16.65"></line>
    </symbol>

    <!-- icon-plus: Simple plus sign outline -->
    <symbol id="icon-plus" viewBox="0 0 24 24" fill="none" stroke="currentColor" stroke-width="1.5" stroke-linecap="round" stroke-linejoin="round">
        <line x1="12" y1="5" x2="12" y2="19"></line>
        <line x1="5" y1="12" x2="19" y2="12"></line>
    </symbol>

    <!-- icon-chevron-left: Simple left-pointing chevron -->
    <symbol id="icon-chevron-left" viewBox="0 0 24 24" fill="none" stroke="currentColor" stroke-width="1.5" stroke-linecap="round" stroke-linejoin="round">
        <polyline points="15 18 9 12 15 6"></polyline>
    </symbol>

    <!-- icon-spinner: Partial circle outline for animation -->
    <symbol id="icon-spinner" viewBox="0 0 24 24" fill="none" stroke="currentColor" stroke-width="1.5" stroke-linecap="round" stroke-linejoin="round">
        <path d="M21 12a9 9 0 1 1-6.219-8.56"></path>
    </symbol>

    <!-- icon-menu: Hamburger menu (three horizontal lines) -->
    <symbol id="icon-menu" viewBox="0 0 24 24" fill="none" stroke="currentColor" stroke-width="1.5" stroke-linecap="round" stroke-linejoin="round">
        <line x1="3" y1="6" x2="21" y2="6"></line>
        <line x1="3" y1="12" x2="21" y2="12"></line>
        <line x1="3" y1="18" x2="21" y2="18"></line>
    </symbol>

    <!-- icon-close: X shape for closing -->
    <symbol id="icon-close" viewBox="0 0 24 24" fill="none" stroke="currentColor" stroke-width="1.5" stroke-linecap="round" stroke-linejoin="round">
        <line x1="18" y1="6" x2="6" y2="18"></line>
        <line x1="6" y1="6" x2="18" y2="18"></line>
    </symbol>

    <!-- icon-car: Car outline (clean sedan design) -->
    <symbol id="icon-car" viewBox="0 0 24 24" fill="none" stroke="currentColor" stroke-width="1.5" stroke-linecap="round" stroke-linejoin="round">
        <!-- Car body (single path) -->
        <path d="M3,12 L5,8 C5.5,6.5 6.5,6 8,6 L16,6 C17.5,6 18.5,6.5 19,8 L21,12 L21,18 C21,19.1 20.1,20 19,20 L5,20 C3.9,20 3,19.1 3,18 L3,12 Z"></path>
        <!-- Windows -->
        <path d="M8,8 L16,8 L16,12 L8,12 L8,8 Z"></path>
        <!-- Wheels -->
        <circle cx="7" cy="17" r="1.5"></circle>
        <circle cx="17" cy="17" r="1.5"></circle>
    </symbol>

    <!-- icon-home: House outline -->
    <symbol id="icon-home" viewBox="0 0 24 24" fill="none" stroke="currentColor" stroke-width="1.5" stroke-linecap="round" stroke-linejoin="round">
        <path d="M3 9l9-7 9 7v11a2 2 0 0 1-2 2H5a2 2 0 0 1-2-2z"></path>
        <polyline points="9 22 9 12 15 12 15 22"></polyline>
    </symbol>

    <!-- icon-barcode: Barcode outline -->
    <symbol id="icon-barcode" viewBox="0 0 24 24" fill="none" stroke="currentColor" stroke-width="1.5" stroke-linecap="round" stroke-linejoin="round">
        <path d="M4 7V5a1 1 0 0 1 1-1h2"></path>
        <path d="M4 17v2a1 1 0 0 0 1 1h2"></path>
        <path d="M16 4h2a1 1 0 0 1 1 1v2"></path>
        <path d="M16 20h2a1 1 0 0 0 1-1v-2"></path>
        <rect x="5" y="8" width="1" height="8"></rect>
        <rect x="8" y="8" width="1" height="8"></rect>
        <rect x="11" y="8" width="1" height="8"></rect>
        <rect x="14" y="8" width="1" height="8"></rect>
        <rect x="17" y="8" width="1" height="8"></rect>
    </symbol>

    <!-- icon-engine: Engine outline -->
    <symbol id="icon-engine" viewBox="0 0 24 24" fill="none" stroke="currentColor" stroke-width="1.5" stroke-linecap="round" stroke-linejoin="round">
        <rect x="4" y="8" width="16" height="12" rx="2" ry="2"></rect>
        <path d="M8 8V6a2 2 0 0 1 2-2h4a2 2 0 0 1 2 2v2"></path>
        <path d="M10 14h4"></path>
        <path d="M12 12v4"></path>
    </symbol>

    <!-- icon-id-card: ID Card outline -->
    <symbol id="icon-id-card" viewBox="0 0 24 24" fill="none" stroke="currentColor" stroke-width="1.5" stroke-linecap="round" stroke-linejoin="round">
        <rect x="2" y="5" width="20" height="14" rx="2" ry="2"></rect>
        <path d="M9 12a2 2 0 1 0 0-4 2 2 0 0 0 0 4z"></path>
        <path d="M11 14c0 1.1-.9 2-2 2H7c-1.1 0-2-.9-2-2"></path>
        <line x1="14" y1="9" x2="20" y2="9"></line>
        <line x1="14" y1="12" x2="18" y2="12"></line>
        <line x1="14" y1="15" x2="16" y2="15"></line>
    </symbol>

    <!-- icon-chevron-right: Simple right-pointing chevron -->
    <symbol id="icon-chevron-right" viewBox="0 0 24 24" fill="none" stroke="currentColor" stroke-width="1.5" stroke-linecap="round" stroke-linejoin="round">
        <polyline points="9 18 15 12 9 6"></polyline>
    </symbol>

    <!-- icon-palette: Color palette -->
    <symbol id="icon-palette" viewBox="0 0 24 24" fill="none" stroke="currentColor" stroke-width="1.5" stroke-linecap="round" stroke-linejoin="round">
        <circle cx="12" cy="12" r="10"></circle>
        <circle cx="8" cy="8" r="1"></circle>
        <circle cx="16" cy="8" r="1"></circle>
        <circle cx="16" cy="16" r="1"></circle>
        <circle cx="8" cy="16" r="1"></circle>
    </symbol>

    <!-- icon-calendar: Calendar outline -->
    <symbol id="icon-calendar" viewBox="0 0 24 24" fill="none" stroke="currentColor" stroke-width="1.5" stroke-linecap="round" stroke-linejoin="round">
        <rect x="3" y="4" width="18" height="18" rx="2" ry="2"></rect>
        <line x1="16" y1="2" x2="16" y2="6"></line>
        <line x1="8" y1="2" x2="8" y2="6"></line>
        <line x1="3" y1="10" x2="21" y2="10"></line>
    </symbol>

    <!-- icon-link: Link/chain icon -->
    <symbol id="icon-link" viewBox="0 0 24 24" fill="none" stroke="currentColor" stroke-width="1.5" stroke-linecap="round" stroke-linejoin="round">
        <path d="M10 13a5 5 0 0 0 7.54.54l3-3a5 5 0 0 0-7.07-7.07l-1.72 1.71"></path>
        <path d="M14 11a5 5 0 0 0-7.54-.54l-3 3a5 5 0 0 0 7.07 7.07l1.71-1.71"></path>
    </symbol>
</svg>
